#Comment line ignore any data following # character 
#Hierarchical Translation and Rotation (.htr) file 
[Header]	
#Header keywords are followed by a single value 
FileType HTR		#Single word string
DataType HTRS		#Translation followed by rotation and scale data
FileVersion 1		#integer
NumSegments 84		#integer
NumFrames 2		#integer
DataFrameRate 30		#integer, data frame rate in this file
EulerRotationOrder ZYX
CalibrationUnits mm
RotationUnits Degrees
GlobalAxisofGravity Y
BoneLengthAxis Y
ScaleFactor 1.00
[SegmentNames&Hierarchy]
#CHILD	PARENT
MASTER GLOBAL
root MASTER
chest root
L_mid_tent01 root
R_mid_tent01 root
spine01 root
Bip01_Neck chest
L_humerus chest
R_humerus chest
weapon_bone chest
Bip01_Head Bip01_Neck
eye_left_bone Bip01_Head
eye_right_bone Bip01_Head
L_forearm L_humerus
L_front_hand L_forearm
L_weapon_bone L_forearm
L_front_hand01_01 L_front_hand
L_front_hand02_01 L_front_hand
L_front_hand03_01 L_front_hand
L_front_hand01_02 L_front_hand01_01
L_front_hand02_02 L_front_hand02_01
L_front_hand03_02 L_front_hand03_01
R_forearm R_humerus
R_front_hand R_forearm
R_weapon_bone R_forearm
R_front_hand01_01 R_front_hand
R_front_hand02_01 R_front_hand
R_front_hand03_01 R_front_hand
R_front_hand01_02 R_front_hand01_01
R_front_hand02_02 R_front_hand02_01
R_front_hand03_02 R_front_hand03_01
null_rope01_connect L_mid_tent01
Rope1_Seg01 null_rope01_connect
Rope1_Seg02 Rope1_Seg01
Rope1_Seg03 Rope1_Seg02
Rope1_Seg04 Rope1_Seg03
Rope1_Seg05 Rope1_Seg04
Rope1_Seg06 Rope1_Seg05
Rope1_Seg07 Rope1_Seg06
Rope1_Seg09 Rope1_Seg07
L_mid_hand01 Rope1_Seg09
L_mid_hand02 Rope1_Seg09
L_mid_hand03 Rope1_Seg09
null_rope02_connect R_mid_tent01
Rope2_Seg01 null_rope02_connect
Rope2_Seg02 Rope2_Seg01
Rope2_Seg03 Rope2_Seg02
Rope2_Seg04 Rope2_Seg03
Rope2_Seg05 Rope2_Seg04
Rope2_Seg06 Rope2_Seg05
Rope2_Seg07 Rope2_Seg06
Rope2_Seg09 Rope2_Seg07
R_mid_hand01 Rope2_Seg09
R_mid_hand02 Rope2_Seg09
R_mid_hand03 Rope2_Seg09
spine02 spine01
spine03 spine02
pelvis spine03
null_rope03_connect pelvis
null_rope04_connect pelvis
Rope3_Seg01 null_rope03_connect
Rope3_Seg02 Rope3_Seg01
Rope3_Seg03 Rope3_Seg02
Rope3_Seg04 Rope3_Seg03
Rope3_Seg05 Rope3_Seg04
Rope3_Seg06 Rope3_Seg05
Rope3_Seg07 Rope3_Seg06
Rope3_Seg08 Rope3_Seg07
Rope3_Seg09 Rope3_Seg08
R_rear_hand01 Rope3_Seg09
R_rear_hand02 Rope3_Seg09
R_rear_hand03 Rope3_Seg09
Rope4_Seg01 null_rope04_connect
Rope4_Seg02 Rope4_Seg01
Rope4_Seg03 Rope4_Seg02
Rope4_Seg04 Rope4_Seg03
Rope4_Seg05 Rope4_Seg04
Rope4_Seg06 Rope4_Seg05
Rope4_Seg07 Rope4_Seg06
Rope4_Seg08 Rope4_Seg07
Rope4_Seg09 Rope4_Seg08
L_rear_hand01 Rope4_Seg09
L_rear_hand02 Rope4_Seg09
L_rear_hand03 Rope4_Seg09
[BasePosition]
#SegmentName Tx, Ty, Tz, Rx, Ry, Rz, BoneLength
MASTER 0.000000 0.000000 0.000000 -90.000000 0.000000 0.000000 10.000000 
root 0.000000 0.000000 0.000000 0.000000 0.000000 0.000000 10.000000 
chest 0.000000 0.000000 0.000000 0.000000 0.000000 0.000000 10.000000 
L_mid_tent01 0.000000 0.000000 0.000000 0.000000 0.000000 0.000000 10.000000 
R_mid_tent01 0.000000 0.000000 0.000000 0.000000 0.000000 0.000000 10.000000 
spine01 0.000000 0.000000 0.000000 0.000000 0.000000 0.000000 10.000000 
Bip01_Neck 0.000000 0.000000 0.000000 0.000000 0.000000 0.000000 10.000000 
L_humerus 0.000000 0.000000 0.000000 0.000000 0.000000 0.000000 10.000000 
R_humerus 0.000000 0.000000 0.000000 0.000000 0.000000 0.000000 10.000000 
weapon_bone 0.000000 0.000000 0.000000 0.000000 0.000000 0.000000 10.000000 
Bip01_Head 0.000000 0.000000 0.000000 0.000000 0.000000 0.000000 10.000000 
eye_left_bone 0.000000 0.000000 0.000000 0.000000 0.000000 0.000000 10.000000 
eye_right_bone 0.000000 0.000000 0.000000 0.000000 0.000000 0.000000 10.000000 
L_forearm 0.000000 0.000000 0.000000 0.000000 0.000000 0.000000 10.000000 
L_front_hand 0.000000 0.000000 0.000000 0.000000 0.000000 0.000000 10.000000 
L_weapon_bone 0.000000 0.000000 0.000000 0.000000 0.000000 0.000000 10.000000 
L_front_hand01_01 0.000000 0.000000 0.000000 0.000000 0.000000 0.000000 10.000000 
L_front_hand02_01 0.000000 0.000000 0.000000 0.000000 0.000000 0.000000 10.000000 
L_front_hand03_01 0.000000 0.000000 0.000000 0.000000 0.000000 0.000000 10.000000 
L_front_hand01_02 0.000000 0.000000 0.000000 0.000000 0.000000 0.000000 10.000000 
L_front_hand02_02 0.000000 0.000000 0.000000 0.000000 0.000000 0.000000 10.000000 
L_front_hand03_02 0.000000 0.000000 0.000000 0.000000 0.000000 0.000000 10.000000 
R_forearm 0.000000 0.000000 0.000000 0.000000 0.000000 0.000000 10.000000 
R_front_hand 0.000000 0.000000 0.000000 0.000000 0.000000 0.000000 10.000000 
R_weapon_bone 0.000000 0.000000 0.000000 0.000000 0.000000 0.000000 10.000000 
R_front_hand01_01 0.000000 0.000000 0.000000 0.000000 0.000000 0.000000 10.000000 
R_front_hand02_01 0.000000 0.000000 0.000000 0.000000 0.000000 0.000000 10.000000 
R_front_hand03_01 0.000000 0.000000 0.000000 0.000000 0.000000 0.000000 10.000000 
R_front_hand01_02 0.000000 0.000000 0.000000 0.000000 0.000000 0.000000 10.000000 
R_front_hand02_02 0.000000 0.000000 0.000000 0.000000 0.000000 0.000000 10.000000 
R_front_hand03_02 0.000000 0.000000 0.000000 0.000000 0.000000 0.000000 10.000000 
null_rope01_connect 0.000000 0.000000 0.000000 0.000000 0.000000 0.000000 10.000000 
Rope1_Seg01 0.000000 0.000000 0.000000 0.000000 0.000000 0.000000 10.000000 
Rope1_Seg02 0.000000 0.000000 0.000000 0.000000 0.000000 0.000000 10.000000 
Rope1_Seg03 0.000000 0.000000 0.000000 0.000000 0.000000 0.000000 10.000000 
Rope1_Seg04 0.000000 0.000000 0.000000 0.000000 0.000000 0.000000 10.000000 
Rope1_Seg05 0.000000 0.000000 0.000000 0.000000 0.000000 0.000000 10.000000 
Rope1_Seg06 0.000000 0.000000 0.000000 0.000000 0.000000 0.000000 10.000000 
Rope1_Seg07 0.000000 0.000000 0.000000 0.000000 0.000000 0.000000 10.000000 
Rope1_Seg09 0.000000 0.000000 0.000000 0.000000 0.000000 0.000000 10.000000 
L_mid_hand01 0.000000 0.000000 0.000000 0.000000 0.000000 0.000000 10.000000 
L_mid_hand02 0.000000 0.000000 0.000000 0.000000 0.000000 0.000000 10.000000 
L_mid_hand03 0.000000 0.000000 0.000000 0.000000 0.000000 0.000000 10.000000 
null_rope02_connect 0.000000 0.000000 0.000000 0.000000 0.000000 0.000000 10.000000 
Rope2_Seg01 0.000000 0.000000 0.000000 0.000000 0.000000 0.000000 10.000000 
Rope2_Seg02 0.000000 0.000000 0.000000 0.000000 0.000000 0.000000 10.000000 
Rope2_Seg03 0.000000 0.000000 0.000000 0.000000 0.000000 0.000000 10.000000 
Rope2_Seg04 0.000000 0.000000 0.000000 0.000000 0.000000 0.000000 10.000000 
Rope2_Seg05 0.000000 0.000000 0.000000 0.000000 0.000000 0.000000 10.000000 
Rope2_Seg06 0.000000 0.000000 0.000000 0.000000 0.000000 0.000000 10.000000 
Rope2_Seg07 0.000000 0.000000 0.000000 0.000000 0.000000 0.000000 10.000000 
Rope2_Seg09 0.000000 0.000000 0.000000 0.000000 0.000000 0.000000 10.000000 
R_mid_hand01 0.000000 0.000000 0.000000 0.000000 0.000000 0.000000 10.000000 
R_mid_hand02 0.000000 0.000000 0.000000 0.000000 0.000000 0.000000 10.000000 
R_mid_hand03 0.000000 0.000000 0.000000 0.000000 0.000000 0.000000 10.000000 
spine02 0.000000 0.000000 0.000000 0.000000 0.000000 0.000000 10.000000 
spine03 0.000000 0.000000 0.000000 0.000000 0.000000 0.000000 10.000000 
pelvis 0.000000 0.000000 0.000000 0.000000 0.000000 0.000000 10.000000 
null_rope03_connect 0.000000 0.000000 0.000000 0.000000 0.000000 0.000000 10.000000 
null_rope04_connect 0.000000 0.000000 0.000000 0.000000 0.000000 0.000000 10.000000 
Rope3_Seg01 0.000000 0.000000 0.000000 0.000000 0.000000 0.000000 10.000000 
Rope3_Seg02 0.000000 0.000000 0.000000 0.000000 0.000000 0.000000 10.000000 
Rope3_Seg03 0.000000 0.000000 0.000000 0.000000 0.000000 0.000000 10.000000 
Rope3_Seg04 0.000000 0.000000 0.000000 0.000000 0.000000 0.000000 10.000000 
Rope3_Seg05 0.000000 0.000000 0.000000 0.000000 0.000000 0.000000 10.000000 
Rope3_Seg06 0.000000 0.000000 0.000000 0.000000 0.000000 0.000000 10.000000 
Rope3_Seg07 0.000000 0.000000 0.000000 0.000000 0.000000 0.000000 10.000000 
Rope3_Seg08 0.000000 0.000000 0.000000 0.000000 0.000000 0.000000 10.000000 
Rope3_Seg09 0.000000 0.000000 0.000000 0.000000 0.000000 0.000000 10.000000 
R_rear_hand01 0.000000 0.000000 0.000000 0.000000 0.000000 0.000000 10.000000 
R_rear_hand02 0.000000 0.000000 0.000000 0.000000 0.000000 0.000000 10.000000 
R_rear_hand03 0.000000 0.000000 0.000000 0.000000 0.000000 0.000000 10.000000 
Rope4_Seg01 0.000000 0.000000 0.000000 0.000000 0.000000 0.000000 10.000000 
Rope4_Seg02 0.000000 0.000000 0.000000 0.000000 0.000000 0.000000 10.000000 
Rope4_Seg03 0.000000 0.000000 0.000000 0.000000 0.000000 0.000000 10.000000 
Rope4_Seg04 0.000000 0.000000 0.000000 0.000000 0.000000 0.000000 10.000000 
Rope4_Seg05 0.000000 0.000000 0.000000 0.000000 0.000000 0.000000 10.000000 
Rope4_Seg06 0.000000 0.000000 0.000000 0.000000 0.000000 0.000000 10.000000 
Rope4_Seg07 0.000000 0.000000 0.000000 0.000000 0.000000 0.000000 10.000000 
Rope4_Seg08 0.000000 0.000000 0.000000 0.000000 0.000000 0.000000 10.000000 
Rope4_Seg09 0.000000 0.000000 0.000000 0.000000 0.000000 0.000000 10.000000 
L_rear_hand01 0.000000 0.000000 0.000000 0.000000 0.000000 0.000000 10.000000 
L_rear_hand02 0.000000 0.000000 0.000000 0.000000 0.000000 0.000000 10.000000 
L_rear_hand03 0.000000 0.000000 0.000000 0.000000 0.000000 0.000000 10.000000 
#Beginning of Data. Separated by tabs
#Fr	Tx	Ty	Tz	Rx	Ry	Rz	SF
[MASTER]
12 -1192.078491 -55.319958 1222.601196 0.001660 0.001660 0.001660 1708.468628
13 -1270.716919 -41.159695 1424.381714 0.001660 0.001660 0.001660 1909.261353
[root]
12 35.531540 -69.164383 830.012024 -137.258484 -17.205414 -60.350193 833.646301
13 39.991997 -61.049183 574.508728 -147.325562 -16.071783 -65.378098 579.125732
[chest]
12 -84.512650 -34.090519 0.000000 -19.309479 -11.048570 173.707657 91.129311
13 -84.512650 -34.090519 0.000000 -22.664261 -13.194674 174.356995 91.129311
[L_mid_tent01]
12 27.299126 22.179184 -249.918716 -2.000525 21.339958 67.299889 252.381714
13 27.299126 22.179188 -249.918716 -6.534923 19.506210 53.862411 252.381714
[R_mid_tent01]
12 23.228794 24.509907 226.238495 172.152344 -19.969435 60.755344 228.744751
13 23.228794 24.509907 226.238495 172.703537 -14.254383 59.790936 228.744751
[spine01]
12 -0.361383 -0.195265 0.000000 0.001956 0.001297 22.892246 0.410763
13 -0.361383 -0.195265 0.000000 0.001957 0.001297 22.934290 0.410763
[Bip01_Neck]
12 165.484543 71.581718 0.000119 176.643677 -1.657967 43.431911 180.302734
13 165.484543 71.581718 0.000119 176.643677 -1.657967 43.431911 180.302734
[L_humerus]
12 -13.983130 -135.272980 -120.471481 169.925156 40.396721 -96.047470 181.680161
13 -13.983130 -135.272980 -120.471481 171.990173 17.867290 -91.839500 181.680161
[R_humerus]
12 -13.983309 -135.273102 125.287651 -178.687698 -28.664671 -85.552643 184.909012
13 -13.983309 -135.273102 125.287651 -178.811386 -8.474133 -84.724380 184.909012
[weapon_bone]
12 235.964890 -300.705902 0.000000 0.000000 -89.951546 -128.212341 382.234833
13 235.964890 -300.705902 0.000000 0.000000 -89.951546 -128.212341 382.234833
[Bip01_Head]
12 213.673889 185.076599 20.027466 16.339571 -0.409892 -43.892750 283.391907
13 213.669586 185.088394 19.874268 17.151213 -1.457616 -43.900330 283.385590
[eye_left_bone]
12 -24.626970 125.451866 -64.772606 0.000000 -90.000000 -99.840431 143.318359
13 -24.626970 125.451866 -64.772606 0.000000 -90.000000 -99.840431 143.318359
[eye_right_bone]
12 -24.626970 125.451866 64.327362 0.000000 -89.980217 80.156387 143.117676
13 -24.626970 125.451866 64.327362 0.000000 -89.980217 80.156380 143.117676
[L_forearm]
12 322.776093 0.000000 -0.000119 0.000127 -0.002344 -96.186752 322.776093
13 322.776093 0.000000 -0.000119 0.000129 -0.002344 -96.306366 322.776093
[L_front_hand]
12 241.149185 -0.042021 -3.300071 177.156860 -1.836222 -27.423271 241.171753
13 241.149185 -0.042021 -3.300071 176.163132 -1.834699 -27.424646 241.171753
[L_weapon_bone]
12 156.183838 0.000000 0.000000 0.000014 0.000007 0.000001 156.183838
13 156.183838 0.000000 0.000000 0.000014 0.000007 0.000001 156.183838
[L_front_hand01_01]
12 86.095154 20.947098 -0.655860 -0.335851 -0.499728 71.888641 88.609184
13 86.095154 20.947098 -0.655860 -0.321876 -0.503218 70.271805 88.609184
[L_front_hand02_01]
12 86.935165 -11.437475 24.513514 149.260529 -58.235107 -55.379070 91.046425
13 86.935165 -11.437475 24.513514 147.072968 -57.382061 -52.794056 91.046425
[L_front_hand03_01]
12 86.637497 -14.123976 -20.424902 -149.134567 56.449898 -57.022202 90.126129
13 86.637497 -14.123976 -20.424902 -147.102722 55.596401 -54.571564 90.126129
[L_front_hand01_02]
12 71.020905 -0.000179 0.000030 0.000319 -0.002325 -105.638527 71.020905
13 71.020905 -0.000179 0.000030 0.000318 -0.002326 -105.590927 71.020905
[L_front_hand02_02]
12 71.020927 -0.000119 0.000060 0.000319 -0.002325 -105.638527 71.020927
13 71.020927 -0.000119 0.000060 0.000318 -0.002326 -105.590927 71.020927
[L_front_hand03_02]
12 71.020905 -0.000060 0.000060 0.000319 -0.002325 -105.638527 71.020905
13 71.020905 -0.000060 0.000060 0.000318 -0.002326 -105.590927 71.020905
[R_forearm]
12 322.776428 -0.000060 0.000030 0.211135 0.015107 -94.722786 322.776428
13 322.776428 -0.000060 0.000030 0.212792 0.017150 -94.843796 322.776428
[R_front_hand]
12 238.847015 -0.006795 2.210259 -2.635298 -10.645461 -26.312506 238.857239
13 238.847015 -0.006795 2.210259 -2.635298 -10.645461 -26.312506 238.857239
[R_weapon_bone]
12 155.664093 0.002503 -0.000030 0.003487 0.001180 -90.988930 155.664078
13 155.664093 0.002503 -0.000030 0.003487 0.001180 -90.988930 155.664078
[R_front_hand01_01]
12 87.624611 14.231146 22.918642 -146.976166 -57.336147 52.779388 91.683487
13 87.624611 14.231146 22.918642 -144.302139 -56.138653 49.586014 91.683487
[R_front_hand02_01]
12 89.356956 14.367283 -19.491137 147.400665 55.711205 55.166904 92.579636
13 89.356956 14.367283 -19.491137 144.866989 54.526855 52.081070 92.579636
[R_front_hand03_01]
12 87.286232 -22.307278 -0.143439 0.123256 -0.437630 -70.429710 90.091743
13 87.286232 -22.307278 -0.143439 0.104166 -0.441299 -68.306496 90.091743
[R_front_hand01_02]
12 71.020905 0.000060 0.000119 0.002323 -0.000334 106.381714 71.020905
13 71.020905 0.000060 0.000119 0.002323 -0.000334 106.381714 71.020905
[R_front_hand02_02]
12 71.020844 -0.000030 -0.000119 0.002323 -0.000334 106.381714 71.020836
13 71.020844 -0.000030 -0.000119 0.002323 -0.000334 106.381714 71.020836
[R_front_hand03_02]
12 71.020905 0.000000 0.000030 0.002323 -0.000334 106.381714 71.020905
13 71.020905 0.000000 0.000030 0.002323 -0.000334 106.381714 71.020905
[null_rope01_connect]
12 328.732483 0.000000 -0.000238 -170.578110 -30.799223 -129.557129 328.732483
13 328.732483 0.000000 -0.000238 -165.030380 -20.889366 -123.000710 328.732483
[Rope1_Seg01]
12 0.000048 -0.000050 0.000105 -135.620514 -59.708893 -117.610519 0.000126
13 0.000052 -0.000051 0.000100 84.977325 -81.771515 21.255333 0.000124
[Rope1_Seg02]
12 139.999863 -0.000179 0.000000 38.874062 22.647139 20.557938 139.999863
13 139.999863 -0.000179 0.000000 7.025985 13.510067 11.858744 139.999863
[Rope1_Seg03]
12 139.999924 0.000060 -0.000060 33.146248 50.708450 20.495403 139.999924
13 139.999924 0.000060 -0.000060 24.655466 36.811481 37.167835 139.999924
[Rope1_Seg04]
12 139.999924 -0.000060 -0.000119 -1.623578 10.271094 -18.865225 139.999924
13 139.999924 -0.000060 -0.000119 6.246248 30.627668 16.036049 139.999924
[Rope1_Seg05]
12 139.999832 0.000119 -0.000060 6.377674 -3.894677 -20.996489 139.999832
13 139.999832 0.000119 -0.000060 1.706089 -1.054791 -15.808461 139.999832
[Rope1_Seg06]
12 139.999954 0.000119 -0.000060 2.878719 -0.226588 -8.074726 139.999954
13 139.999954 0.000119 -0.000060 4.531507 -2.301194 -15.977036 139.999954
[Rope1_Seg07]
12 139.999985 0.000060 0.000000 2.079837 -0.344485 -4.655602 139.999985
13 139.999985 0.000060 0.000000 2.756238 -0.034831 -8.158923 139.999985
[Rope1_Seg09]
12 121.602913 0.000119 -0.000089 -89.793175 -1.359789 0.847147 121.602913
13 121.602913 0.000119 -0.000089 -89.793175 -1.359789 0.847147 121.602913
[L_mid_hand01]
12 103.859421 1.038730 8.195221 112.987701 -50.601227 -18.681456 104.187431
13 103.859421 1.038730 8.195221 111.216118 -46.770245 -16.325294 104.187431
[L_mid_hand02]
12 105.572853 -4.139662 -10.864139 -153.018723 36.866009 -49.082401 106.211075
13 105.572853 -4.139662 -10.864139 -150.384232 34.904892 -44.592522 106.211075
[L_mid_hand03]
12 104.641464 17.579376 -3.913581 -11.755013 14.733717 54.618225 106.179977
13 104.641464 17.579376 -3.913581 -12.781255 13.855397 50.452671 106.179977
[null_rope02_connect]
12 328.732849 0.000179 -0.000119 -40.080471 39.639423 89.024445 328.732849
13 328.732849 0.000179 -0.000119 -20.575323 35.129887 107.709831 328.732849
[Rope2_Seg01]
12 0.000074 0.000126 -0.000048 -6.057171 52.075245 -73.692284 0.000154
13 0.000077 0.000128 -0.000052 -7.203495 71.538193 -75.953148 0.000158
[Rope2_Seg02]
12 139.999741 -0.000060 -0.000119 0.632720 29.822914 1.715926 139.999756
13 139.999741 -0.000060 -0.000119 -4.405553 30.880911 -1.277288 139.999756
[Rope2_Seg03]
12 140.000107 0.000030 0.000000 -3.749213 18.350050 5.127463 140.000107
13 140.000107 0.000030 0.000000 -5.917739 11.395809 4.005525 140.000107
[Rope2_Seg04]
12 139.999802 0.000000 -0.000060 -3.398350 14.734407 -2.029386 139.999802
13 139.999802 0.000000 -0.000060 -2.193216 10.791674 -3.032933 139.999802
[Rope2_Seg05]
12 139.999985 -0.000060 0.000119 -5.937909 25.002722 -10.089405 139.999985
13 139.999985 -0.000060 0.000119 2.312236 23.311943 -12.641582 139.999985
[Rope2_Seg06]
12 139.999893 -0.000030 -0.000119 -35.375282 17.609818 -4.783156 139.999893
13 139.999893 -0.000030 -0.000119 164.278473 18.873255 -11.384212 139.999893
[Rope2_Seg07]
12 139.999893 0.000060 -0.000060 -102.949539 8.978360 3.541297 139.999893
13 139.999893 0.000060 -0.000060 4.733492 -11.823232 3.219282 139.999893
[Rope2_Seg09]
12 121.338966 0.000089 -0.000060 33.793236 -1.359788 -0.847141 121.338966
13 121.338966 0.000089 -0.000060 33.793236 -1.359788 -0.847141 121.338966
[R_mid_hand01]
12 104.680779 11.144459 -10.335981 -25.192726 41.648338 57.439434 105.778534
13 104.680779 11.144459 -10.335981 -27.387493 40.402237 54.098232 105.778534
[R_mid_hand02]
12 104.070427 2.443552 8.231699 60.800945 -59.436069 26.232430 104.424065
13 104.070427 2.443552 8.231699 62.946606 -56.952805 23.709984 104.424065
[R_mid_hand03]
12 106.028137 -11.221827 -5.996406 -174.361145 14.799507 -66.152634 106.788818
13 106.028137 -11.221827 -5.996406 -173.630432 14.503003 -63.260223 106.788818
[spine02]
12 129.756927 0.001550 0.000119 -0.985997 -3.937721 6.234465 129.756927
13 129.756927 0.001550 0.000119 -0.974739 -3.939556 6.050729 129.756927
[spine03]
12 78.614044 0.081499 -4.898993 1.062611 4.142996 4.544970 78.766579
13 78.614044 0.081473 -4.898993 1.071943 4.139176 4.669097 78.766579
[pelvis]
12 169.435242 0.051022 0.000000 0.018396 -0.190345 -10.046044 169.435257
13 169.435242 0.051022 0.000000 0.018009 -0.190382 -9.812724 169.435257
[null_rope03_connect]
12 -1.257226 -2.466202 137.391083 168.352707 -43.979351 -72.434006 137.418976
13 -1.257226 -2.466202 137.391083 179.175491 -35.768204 -84.142990 137.418976
[null_rope04_connect]
12 -1.259640 -2.480268 -137.844437 168.352707 -43.979351 -72.434006 137.872513
13 -1.259640 -2.480268 -137.844437 179.175491 -35.768204 -84.142990 137.872513
[Rope3_Seg01]
12 0.000000 0.000000 0.000000 2.136636 -10.457300 -31.482136 0.000000
13 0.000000 0.000000 0.000000 0.127410 -11.960290 -29.933369 0.000000
[Rope3_Seg02]
12 139.999924 -0.000119 0.000060 13.274649 17.546167 14.297764 139.999924
13 139.999924 -0.000119 0.000060 21.674425 22.626465 7.046570 139.999924
[Rope3_Seg03]
12 139.999924 -0.000119 0.000119 109.739929 41.127178 19.893332 139.999924
13 139.999924 -0.000119 0.000119 61.447475 50.687347 -12.163634 139.999924
[Rope3_Seg04]
12 139.999924 0.000119 0.000000 18.782169 4.351889 -26.517124 139.999924
13 139.999924 0.000119 0.000000 9.965152 5.506372 -24.638866 139.999924
[Rope3_Seg05]
12 139.999924 -0.000238 0.000060 11.029726 9.751448 -21.573893 139.999924
13 139.999924 -0.000238 0.000060 5.622479 14.880001 -19.512817 139.999924
[Rope3_Seg06]
12 139.999893 -0.000119 -0.000060 5.099770 7.036903 -21.172615 139.999893
13 139.999893 -0.000119 -0.000060 0.409865 18.760780 -27.195776 139.999893
[Rope3_Seg07]
12 139.999771 0.000060 -0.000119 1.300868 0.857896 -9.391871 139.999771
13 139.999771 0.000060 -0.000119 -0.378962 5.797847 -12.093152 139.999771
[Rope3_Seg08]
12 139.999985 -0.000060 0.000000 0.665754 0.327369 -4.933862 139.999985
13 139.999985 -0.000060 0.000000 -0.203713 2.720225 -5.724389 139.999985
[Rope3_Seg09]
12 90.185997 -0.000179 -0.000060 89.793228 -1.359877 -0.847183 90.185997
13 90.185997 -0.000179 -0.000060 89.793228 -1.359877 -0.847183 90.185997
[R_rear_hand01]
12 103.366196 -6.073594 -10.757982 178.142578 -16.017054 -65.613960 104.101845
13 103.366196 -6.073594 -10.757982 179.543716 -16.379452 -62.966728 104.101845
[R_rear_hand02]
12 100.509819 12.039542 -7.992327 -21.205954 33.223911 57.720810 101.543350
13 100.509819 12.039542 -7.992327 -23.185047 31.960989 54.046936 101.543350
[R_rear_hand03]
12 101.539970 5.215704 5.435467 78.624985 -59.850563 13.735100 101.819031
13 101.539970 5.215704 5.435467 79.639084 -56.567936 12.539787 101.819031
[Rope4_Seg01]
12 0.000010 0.000026 -0.000105 -105.868294 -14.235250 -60.577229 0.000108
13 0.000010 0.000025 -0.000100 -107.498627 -15.831559 -59.744640 0.000104
[Rope4_Seg02]
12 139.999985 0.000060 0.000119 -23.412418 27.233662 -22.208050 139.999985
13 139.999985 0.000060 0.000119 -25.944809 25.853865 -24.549833 139.999985
[Rope4_Seg03]
12 139.999924 0.000000 -0.000238 -9.438321 36.313122 -17.483774 139.999924
13 139.999924 0.000000 -0.000238 -11.084628 36.130974 -18.601868 139.999924
[Rope4_Seg04]
12 139.999985 0.000000 0.000119 1.779171 13.727827 -6.658414 139.999985
13 139.999985 0.000000 0.000119 1.249422 13.507337 -5.839692 139.999985
[Rope4_Seg05]
12 139.999802 -0.000060 -0.000119 1.407402 8.917793 0.468620 139.999802
13 139.999802 -0.000060 -0.000119 1.516134 9.556041 -0.169406 139.999802
[Rope4_Seg06]
12 139.999924 0.000000 0.000060 2.003923 15.597528 5.565214 139.999924
13 139.999924 0.000000 0.000060 3.755729 17.911413 3.349164 139.999924
[Rope4_Seg07]
12 139.999802 0.000000 0.000000 6.827596 24.517807 9.330721 139.999802
13 139.999802 0.000000 0.000000 14.424975 24.970091 3.267975 139.999802
[Rope4_Seg08]
12 139.999924 0.000000 0.000119 19.458454 13.990675 2.558726 139.999924
13 139.999924 0.000000 0.000119 24.518219 13.628722 -2.406265 139.999924
[Rope4_Seg09]
12 90.185791 0.000060 0.000060 -135.617828 2.228885 0.850567 90.185791
13 90.185791 0.000060 0.000060 -135.617828 2.228885 0.850567 90.185791
[L_rear_hand01]
12 101.696655 -8.392275 -7.654577 -30.967802 -24.555588 142.276382 102.329041
13 101.696655 -8.392275 -7.654577 -31.684452 -23.583008 144.025742 102.329041
[L_rear_hand02]
12 102.726799 -1.568258 5.773216 82.497200 40.606583 171.238342 102.900848
13 102.726799 -1.568258 5.773216 82.701553 38.753956 171.553619 102.900848
[L_rear_hand03]
12 104.552910 9.721220 -10.420293 -164.603775 -19.511108 -140.104065 105.519653
13 104.552910 9.721220 -10.420293 -163.975403 -19.004421 -142.009338 105.519653
